<svg width="2022" height="383" viewBox="0 0 2022 383" fill="none" xmlns="http://www.w3.org/2000/svg">
<rect width="2022" height="383" fill="white"/>
<path d="M13.5762 354.9V347.4L19.5762 346.8C26.5762 346 31.8762 345 35.4762 343.8C39.2762 342.4 41.8762 339.6 43.2762 335.4C44.8762 331 45.6762 323.9 45.6762 314.1V180.9C45.6762 170.9 44.9762 163.8 43.5762 159.6C42.1762 155.4 39.5762 152.7 35.7762 151.5C32.1762 150.1 26.8762 149 19.8762 148.2L13.8762 147.6V140.1L58.2762 141H100.576C127.576 141 150.376 144.6 168.976 151.8C187.776 159 202.076 170.4 211.876 186C221.676 201.4 226.576 221.6 226.576 246.6C226.576 264.4 223.576 280 217.576 293.4C211.576 306.8 203.376 318 192.976 327C182.576 336 170.676 342.8 157.276 347.4C144.076 351.8 130.176 354 115.576 354H57.9762L13.5762 354.9ZM91.2762 345H116.776C141.176 345 160.776 337.1 175.576 321.3C190.376 305.3 197.776 280.6 197.776 247.2C197.776 226.8 194.876 209.4 189.076 195C183.476 180.4 174.176 169.3 161.176 161.7C148.376 153.9 131.076 150 109.276 150H71.4762V310.2C71.4762 316 71.8762 321.6 72.6762 327C73.4762 332.2 75.2762 336.5 78.0762 339.9C80.8762 343.3 85.2762 345 91.2762 345ZM287.474 357.3C277.874 357.3 269.874 354.9 263.474 350.1C257.274 345.1 254.174 338.2 254.174 329.4C254.174 320.6 258.074 312.8 265.874 306C273.674 299 282.774 292.7 293.174 287.1C300.974 282.7 308.774 278.9 316.574 275.7C324.374 272.5 331.074 269.8 336.674 267.6V258C336.674 247 334.574 238.8 330.374 233.4C326.374 228 318.674 225.3 307.274 225.3C301.874 225.3 296.574 226 291.374 227.4C286.174 228.8 283.574 231.4 283.574 235.2C283.574 236 283.674 236.9 283.874 237.9C284.274 238.9 284.574 239.9 284.774 240.9C285.774 243.5 286.274 246.2 286.274 249C286.274 252.8 284.874 255.8 282.074 258C279.474 260 276.274 261 272.474 261C268.874 261 265.874 259.7 263.474 257.1C261.074 254.3 259.874 251 259.874 247.2C259.874 240 262.574 234.3 267.974 230.1C273.574 225.7 280.374 222.6 288.374 220.8C296.374 218.8 304.074 217.8 311.474 217.8C327.474 217.8 339.174 221.5 346.574 228.9C353.974 236.3 357.674 248.4 357.674 265.2V319.2C357.674 328 358.274 334.8 359.474 339.6C360.874 344.4 363.874 346.8 368.474 346.8C371.474 346.8 374.074 345.7 376.274 343.5C378.474 341.3 379.974 338.9 380.774 336.3L386.174 338.4C384.574 344.2 381.674 348.8 377.474 352.2C373.474 355.6 367.874 357.3 360.674 357.3C351.874 357.3 345.774 354.8 342.374 349.8C339.174 344.6 337.374 337.8 336.974 329.4C331.374 338.4 324.274 345.3 315.674 350.1C307.074 354.9 297.674 357.3 287.474 357.3ZM277.574 327.9C277.574 333.5 279.174 338 282.374 341.4C285.774 344.6 290.674 346.2 297.074 346.2C302.874 346.2 308.374 344.8 313.574 342C318.974 339.2 323.674 335.7 327.674 331.5C331.674 327.1 334.674 322.4 336.674 317.4V273.6C330.074 276.4 323.274 279.7 316.274 283.5C309.474 287.1 303.074 291.2 297.074 295.8C291.274 300.4 286.574 305.4 282.974 310.8C279.374 316 277.574 321.7 277.574 327.9ZM452.014 354L403.114 246C401.314 242 399.114 238.6 396.514 235.8C393.914 233 390.014 231.3 384.814 230.7L379.414 230.1V223.2L410.314 224.1L440.914 223.2V230.1L436.114 230.7C431.714 231.3 428.614 232.4 426.814 234C425.014 235.4 424.114 237.4 424.114 240C424.114 242.2 424.914 245.2 426.514 249L464.314 332.4L499.414 250.2C501.214 246.2 502.114 242.9 502.114 240.3C502.114 235.1 497.514 231.9 488.314 230.7L483.214 230.1V223.2L510.214 224.1L535.414 223.2V230.1L528.514 231C522.914 231.8 518.614 234 515.614 237.6C512.614 241 509.614 246.2 506.614 253.2L463.414 354H452.014ZM543.765 354.9V348L548.565 347.4C554.365 346.6 558.765 345.7 561.765 344.7C564.965 343.5 567.165 341 568.365 337.2C569.565 333.2 570.165 326.7 570.165 317.7V254.4C570.165 244 567.965 237.4 563.565 234.6C559.365 231.6 553.465 230.1 545.865 230.1H543.765V223.2C551.965 223.2 559.865 223 567.465 222.6C575.065 222 582.965 221 591.165 219.6V317.7C591.165 326.7 591.765 333.2 592.965 337.2C594.165 341 596.265 343.5 599.265 344.7C602.465 345.7 606.965 346.6 612.765 347.4L617.565 348V354.9L580.665 354L543.765 354.9ZM577.065 184.5C571.865 184.5 567.765 182.7 564.765 179.1C561.765 175.5 560.265 171.2 560.265 166.2C560.265 161 561.765 156.7 564.765 153.3C567.765 149.7 571.865 147.9 577.065 147.9C582.865 147.9 587.065 149.7 589.665 153.3C592.465 156.7 593.865 161 593.865 166.2C593.865 171.2 592.465 175.5 589.665 179.1C587.065 182.7 582.865 184.5 577.065 184.5ZM684.219 357.3C676.619 357.3 670.119 356.4 664.719 354.6C659.519 353 655.419 351.5 652.419 350.1C649.219 348.5 647.219 347.7 646.419 347.7C645.619 347.7 644.919 348.1 644.319 348.9C643.919 349.5 643.419 351.2 642.819 354H635.919L637.119 334.2L638.019 308.7H644.619L644.919 313.8C645.319 319.4 647.119 325 650.319 330.6C653.719 336.2 658.319 340.9 664.119 344.7C669.919 348.5 676.619 350.4 684.219 350.4C692.419 350.4 699.019 348.3 704.019 344.1C709.019 339.9 711.519 334.1 711.519 326.7C711.519 320.3 708.919 314.9 703.719 310.5C698.719 306.1 691.719 302.2 682.719 298.8L671.919 294.6C661.519 290.6 653.619 285.6 648.219 279.6C643.019 273.6 640.419 265.9 640.419 256.5C640.419 248.5 642.219 241.7 645.819 236.1C649.619 230.3 654.519 225.8 660.519 222.6C666.719 219.4 673.319 217.8 680.319 217.8C685.319 217.8 689.519 218.4 692.919 219.6C696.519 220.8 699.519 222 701.919 223.2C703.919 224.2 705.619 224.7 707.019 224.7C709.019 224.7 710.619 222.6 711.819 218.4L718.419 218.7L717.219 238.2V259.2H710.319C708.919 249.8 705.719 241.7 700.719 234.9C695.719 227.9 688.519 224.4 679.119 224.4C672.519 224.4 666.919 226.5 662.319 230.7C657.919 234.9 655.719 240.2 655.719 246.6C655.719 252.8 658.019 258 662.619 262.2C667.419 266.2 673.919 269.8 682.119 273L693.819 277.5C706.019 282.1 714.419 287.7 719.019 294.3C723.819 300.7 726.219 308.4 726.219 317.4C726.219 328 722.619 337.3 715.419 345.3C708.219 353.3 697.819 357.3 684.219 357.3ZM1304.1 354.9V347.4L1310.1 346.8C1317.1 346 1322.4 345 1326 343.8C1329.8 342.4 1332.4 339.6 1333.8 335.4C1335.4 331 1336.2 323.9 1336.2 314.1V180.9C1336.2 170.9 1335.5 163.8 1334.1 159.6C1332.7 155.4 1330.1 152.7 1326.3 151.5C1322.7 150.1 1317.4 149 1310.4 148.2L1304.4 147.6V140.1L1348.8 141H1391.1C1418.1 141 1440.9 144.6 1459.5 151.8C1478.3 159 1492.6 170.4 1502.4 186C1512.2 201.4 1517.1 221.6 1517.1 246.6C1517.1 264.4 1514.1 280 1508.1 293.4C1502.1 306.8 1493.9 318 1483.5 327C1473.1 336 1461.2 342.8 1447.8 347.4C1434.6 351.8 1420.7 354 1406.1 354H1348.5L1304.1 354.9ZM1381.8 345H1407.3C1431.7 345 1451.3 337.1 1466.1 321.3C1480.9 305.3 1488.3 280.6 1488.3 247.2C1488.3 226.8 1485.4 209.4 1479.6 195C1474 180.4 1464.7 169.3 1451.7 161.7C1438.9 153.9 1421.6 150 1399.8 150H1362V310.2C1362 316 1362.4 321.6 1363.2 327C1364 332.2 1365.8 336.5 1368.6 339.9C1371.4 343.3 1375.8 345 1381.8 345ZM1608.9 357.3C1595.7 357.3 1584.2 354.5 1574.4 348.9C1564.6 343.1 1556.9 335.2 1551.3 325.2C1545.9 315 1543.2 303.4 1543.2 290.4C1543.2 276.4 1546.2 264 1552.2 253.2C1558.2 242.2 1566.2 233.6 1576.2 227.4C1586.4 221 1597.6 217.8 1609.8 217.8C1625.2 217.8 1637.2 222.7 1645.8 232.5C1654.6 242.3 1659 255.2 1659 271.2C1659 273.6 1658.9 275.6 1658.7 277.2C1658.5 278.8 1658.3 279.9 1658.1 280.5H1567.5C1567.3 283.3 1567.2 286.1 1567.2 288.9C1567.2 299.5 1568.9 309.4 1572.3 318.6C1575.7 327.6 1580.8 334.8 1587.6 340.2C1594.6 345.6 1603.1 348.3 1613.1 348.3C1622.5 348.3 1630.8 345.7 1638 340.5C1645.4 335.1 1651.1 327.2 1655.1 316.8L1662.3 319.5C1653.9 344.7 1636.1 357.3 1608.9 357.3ZM1609.8 225.3C1597.4 225.3 1587.7 229.7 1580.7 238.5C1573.9 247.3 1569.7 259 1568.1 273.6H1606.2C1615.2 273.6 1622 272.6 1626.6 270.6C1631.4 268.4 1634.6 265.8 1636.2 262.8C1638 259.6 1638.9 256.5 1638.9 253.5C1638.9 244.7 1635.9 237.8 1629.9 232.8C1623.9 227.8 1617.2 225.3 1609.8 225.3ZM1720.97 357.3C1711.37 357.3 1703.37 354.9 1696.97 350.1C1690.77 345.1 1687.67 338.2 1687.67 329.4C1687.67 320.6 1691.57 312.8 1699.37 306C1707.17 299 1716.27 292.7 1726.67 287.1C1734.47 282.7 1742.27 278.9 1750.07 275.7C1757.87 272.5 1764.57 269.8 1770.17 267.6V258C1770.17 247 1768.07 238.8 1763.87 233.4C1759.87 228 1752.17 225.3 1740.77 225.3C1735.37 225.3 1730.07 226 1724.87 227.4C1719.67 228.8 1717.07 231.4 1717.07 235.2C1717.07 236 1717.17 236.9 1717.37 237.9C1717.77 238.9 1718.07 239.9 1718.27 240.9C1719.27 243.5 1719.77 246.2 1719.77 249C1719.77 252.8 1718.37 255.8 1715.57 258C1712.97 260 1709.77 261 1705.97 261C1702.37 261 1699.37 259.7 1696.97 257.1C1694.57 254.3 1693.37 251 1693.37 247.2C1693.37 240 1696.07 234.3 1701.47 230.1C1707.07 225.7 1713.87 222.6 1721.87 220.8C1729.87 218.8 1737.57 217.8 1744.97 217.8C1760.97 217.8 1772.67 221.5 1780.07 228.9C1787.47 236.3 1791.17 248.4 1791.17 265.2V319.2C1791.17 328 1791.77 334.8 1792.97 339.6C1794.37 344.4 1797.37 346.8 1801.97 346.8C1804.97 346.8 1807.57 345.7 1809.77 343.5C1811.97 341.3 1813.47 338.9 1814.27 336.3L1819.67 338.4C1818.07 344.2 1815.17 348.8 1810.97 352.2C1806.97 355.6 1801.37 357.3 1794.17 357.3C1785.37 357.3 1779.27 354.8 1775.87 349.8C1772.67 344.6 1770.87 337.8 1770.47 329.4C1764.87 338.4 1757.77 345.3 1749.17 350.1C1740.57 354.9 1731.17 357.3 1720.97 357.3ZM1711.07 327.9C1711.07 333.5 1712.67 338 1715.87 341.4C1719.27 344.6 1724.17 346.2 1730.57 346.2C1736.37 346.2 1741.87 344.8 1747.07 342C1752.47 339.2 1757.17 335.7 1761.17 331.5C1765.17 327.1 1768.17 322.4 1770.17 317.4V273.6C1763.57 276.4 1756.77 279.7 1749.77 283.5C1742.97 287.1 1736.57 291.2 1730.57 295.8C1724.77 300.4 1720.07 305.4 1716.47 310.8C1712.87 316 1711.07 321.7 1711.07 327.9ZM1824.24 354.9V348L1829.04 347.4C1834.84 346.6 1839.24 345.7 1842.24 344.7C1845.44 343.5 1847.64 341 1848.84 337.2C1850.04 333.2 1850.64 326.7 1850.64 317.7V171.3C1850.64 160.9 1848.44 154.3 1844.04 151.5C1839.84 148.5 1833.94 147 1826.34 147H1824.24V140.1C1832.44 140.1 1840.34 139.9 1847.94 139.5C1855.54 138.9 1863.44 137.9 1871.64 136.5V317.7C1871.64 326.7 1872.24 333.2 1873.44 337.2C1874.64 341 1876.74 343.5 1879.74 344.7C1882.94 345.7 1887.44 346.6 1893.24 347.4L1898.04 348V354.9L1861.14 354L1824.24 354.9ZM1966.25 357.3C1958.65 357.3 1952.15 356.4 1946.75 354.6C1941.55 353 1937.45 351.5 1934.45 350.1C1931.25 348.5 1929.25 347.7 1928.45 347.7C1927.65 347.7 1926.95 348.1 1926.35 348.9C1925.95 349.5 1925.45 351.2 1924.85 354H1917.95L1919.15 334.2L1920.05 308.7H1926.65L1926.95 313.8C1927.35 319.4 1929.15 325 1932.35 330.6C1935.75 336.2 1940.35 340.9 1946.15 344.7C1951.95 348.5 1958.65 350.4 1966.25 350.4C1974.45 350.4 1981.05 348.3 1986.05 344.1C1991.05 339.9 1993.55 334.1 1993.55 326.7C1993.55 320.3 1990.95 314.9 1985.75 310.5C1980.75 306.1 1973.75 302.2 1964.75 298.8L1953.95 294.6C1943.55 290.6 1935.65 285.6 1930.25 279.6C1925.05 273.6 1922.45 265.9 1922.45 256.5C1922.45 248.5 1924.25 241.7 1927.85 236.1C1931.65 230.3 1936.55 225.8 1942.55 222.6C1948.75 219.4 1955.35 217.8 1962.35 217.8C1967.35 217.8 1971.55 218.4 1974.95 219.6C1978.55 220.8 1981.55 222 1983.95 223.2C1985.95 224.2 1987.65 224.7 1989.05 224.7C1991.05 224.7 1992.65 222.6 1993.85 218.4L2000.45 218.7L1999.25 238.2V259.2H1992.35C1990.95 249.8 1987.75 241.7 1982.75 234.9C1977.75 227.9 1970.55 224.4 1961.15 224.4C1954.55 224.4 1948.95 226.5 1944.35 230.7C1939.95 234.9 1937.75 240.2 1937.75 246.6C1937.75 252.8 1940.05 258 1944.65 262.2C1949.45 266.2 1955.95 269.8 1964.15 273L1975.85 277.5C1988.05 282.1 1996.45 287.7 2001.05 294.3C2005.85 300.7 2008.25 308.4 2008.25 317.4C2008.25 328 2004.65 337.3 1997.45 345.3C1990.25 353.3 1979.85 357.3 1966.25 357.3Z" fill="black"/>
<circle cx="961" cy="215" r="146" stroke="black" stroke-width="8"/>
<circle cx="1161" cy="315" r="46" stroke="black" stroke-width="8"/>
<line x1="1003.82" y1="29.819" x2="964.915" y2="215.794" stroke="black" stroke-width="8"/>
<line x1="966.827" y1="22.0864" x2="1037.83" y2="37.0864" stroke="black" stroke-width="8"/>
<path d="M1150.16 95.3969C1152.9 92.0865 1119.52 78.1396 1092.4 76.1765C1092.4 76.1765 1086.91 75.7794 1092.14 79.6673C1097.38 83.5552 1117.78 102.077 1117.78 102.077C1117.78 102.077 1123.07 109.478 1136.72 103.447C1150.36 97.4167 1147.41 98.7073 1150.16 95.3969Z" fill="black" stroke="black"/>
<path d="M1165.48 315.5C1165.48 317.709 1163.69 319.5 1161.48 319.5C1159.27 319.5 1157.48 317.709 1157.48 315.5C1157.48 313.291 1159.27 311.5 1161.48 311.5C1163.69 311.5 1165.48 313.291 1165.48 315.5Z" fill="black"/>
<circle cx="965" cy="215" r="4" fill="black"/>
<circle cx="987" cy="48" r="4" fill="black"/>
<circle cx="967" cy="22" r="4" fill="black"/>
<circle cx="1037" cy="37" r="4" fill="black"/>
<path d="M1161.5 315.5C1136.3 148.795 1110.95 75.377 987.5 48" stroke="black" stroke-width="8"/>
</svg>
